<svg xmlns="http://www.w3.org/2000/svg" width="800" height="200" viewBox="0 0 800 200">
  <!-- Background -->
  <rect width="800" height="200" fill="#0d1117" rx="10" />
  
  <!-- Decorative Circles -->
  <circle cx="50" cy="50" r="150" fill="#58a6ff" opacity="0.03" />
  <circle cx="750" cy="150" r="100" fill="#58a6ff" opacity="0.05" />

  <!-- Subtle code texture / grid -->
  <g opacity="0.1" stroke="#58a6ff" stroke-width="1">
    <path d="M 0 20 L 800 20 M 0 40 L 800 40 M 0 60 L 800 60 M 0 80 L 800 80 M 0 100 L 800 100 M 0 120 L 800 120 M 0 140 L 800 140 M 0 160 L 800 160 M 0 180 L 800 180" />
    <path d="M 20 0 L 20 200 M 40 0 L 40 200 M 60 0 L 60 200 M 80 0 L 80 200 M 100 0 L 100 200 M 120 0 L 120 200 M 140 0 L 140 200 M 160 0 L 160 200 M 180 0 L 180 200 M 200 0 L 200 200" />
  </g>

  <!-- Accent lines -->
  <rect x="0" y="0" width="800" height="4" fill="#58a6ff" />
  <rect x="0" y="196" width="800" height="4" fill="#58a6ff" />

  <!-- Borders -->
  <rect x="20" y="20" width="760" height="160" fill="none" stroke="#58a6ff" stroke-width="2" stroke-dasharray="10 5" opacity="0.4" rx="5" />

  <!-- Content -->
  <text x="400" y="70" font-family="-apple-system, BlinkMacSystemFont, Segoe UI, Roboto, Helvetica, Arial, sans-serif" font-size="32" font-weight="bold" fill="#ffffff" text-anchor="middle" letter-spacing="4">ARAVINDHAN S</text>
  
  <rect x="150" y="85" width="500" height="28" fill="#1f2428" rx="14" stroke="#58a6ff" stroke-width="1" opacity="0.8"/>
  <text x="400" y="105" font-family="-apple-system, BlinkMacSystemFont, Segoe UI, Roboto, Helvetica, Arial, sans-serif" font-size="16" font-weight="600" fill="#58a6ff" text-anchor="middle" letter-spacing="1">JAVA FULL STACK DEVELOPER | AUTOMATION TEST ENGINEER</text>
  
  <text x="400" y="140" font-family="monospace" font-size="14" fill="#8b949e" text-anchor="middle" letter-spacing="1">JAVA • SPRING • SELENIUM • TOSCA • MYSQL</text>
  
  <text x="400" y="165" font-family="-apple-system, BlinkMacSystemFont, Segoe UI, Roboto, Helvetica, Arial, sans-serif" font-size="14" font-style="italic" fill="#c9d1d9" text-anchor="middle">Architecting Scalable Solutions &amp; Ensuring Software Reliability</text>
</svg>
